{"accessors" : [{"bufferView" : 0, "byteOffset" : 0, "componentType" : 5123, "count" : 1812, "type" : "SCALAR", "max" : [1811], "min" : [0]}, {"bufferView" : 1, "byteOffset" : 0, "componentType" : 5126, "count" : 1812, "type" : "VEC3", "max" : [1781.0628662109375, 879.71533203125, 1150], "min" : [-1754.6051025390625, -6.637947808485478E-05, -1518.58544921875], "name" : "POSITION"}, {"bufferView" : 1, "byteOffset" : 12, "componentType" : 5126, "count" : 1812, "type" : "VEC3", "max" : [0.9986758232116699, 1.0000044107437134, 0.9884776473045349], "min" : [-0.9937103986740112, -0.413080632686615, -0.9512790441513062], "name" : "NORMAL"}, {"bufferView" : 1, "byteOffset" : 24, "componentType" : 5126, "count" : 1812, "type" : "VEC2", "max" : [0.04143976792693138, 0.9937046766281128], "min" : [0.008607206866145134, 0.9605861306190491], "name" : "TEXCOORD_0"}], "asset" : {"generator" : "Aspose.3D 24.1.0", "version" : "2.0"}, "buffers" : [{"uri" : "data:application/octet-stream;base64,", "byteLength" : 61616}], "bufferViews" : [{"buffer" : 0, "byteOffset" : 0, "byteLength" : 3624, "target" : 34963}, {"buffer" : 0, "byteOffset" : 3628, "byteLength" : 57984, "byteStride" : 32, "target" : 34962}], "materials" : [{"name" : "Material #25.007", "pbrMetallicRoughness" : {"baseColorFactor" : [0.5879999995231628, 0.5879999995231628, 0.5879999995231628, 1], "metallicFactor" : 1, "roughnessFactor" : 1}, "emissiveFactor" : [0.5879999995231628, 0.5879999995231628, 0.5879999995231628], "alphaMode" : "OPAQUE", "doubleSided" : false}], "meshes" : [{"primitives" : [{"attributes" : {"POSITION" : 1, "NORMAL" : 2, "TEXCOORD_0" : 3}, "indices" : 0, "material" : 0, "mode" : 4}], "name" : "Mesh.007"}], "nodes" : [{"mesh" : 0, "name" : "Hill_desert_005"}], "scene" : 0, "scenes" : [{"nodes" : [0]}]}