{"accessors" : [{"bufferView" : 0, "byteOffset" : 0, "componentType" : 5123, "count" : 312, "type" : "SCALAR", "max" : [311], "min" : [0]}, {"bufferView" : 1, "byteOffset" : 0, "componentType" : 5126, "count" : 312, "type" : "VEC3", "max" : [2992.81298828125, 1321.990234375, 1516.0755615234375], "min" : [-1663.306396484375, -6.274466431932524E-05, -1435.4306640625], "name" : "POSITION"}, {"bufferView" : 1, "byteOffset" : 12, "componentType" : 5126, "count" : 312, "type" : "VEC3", "max" : [0.7763767242431641, 1.0000044107437134, 0.8784109354019165], "min" : [-0.9186285734176636, 0.2883259057998657, -0.9309715032577515], "name" : "NORMAL"}, {"bufferView" : 1, "byteOffset" : 24, "componentType" : 5126, "count" : 312, "type" : "VEC2", "max" : [0.04536609351634979, 0.9924232363700867], "min" : [0.007295562420040369, 0.9633190035820007], "name" : "TEXCOORD_0"}], "asset" : {"generator" : "Aspose.3D 24.1.0", "version" : "2.0"}, "buffers" : [{"uri" : "data:application/octet-stream;base64,", "byteLength" : 10616}], "bufferViews" : [{"buffer" : 0, "byteOffset" : 0, "byteLength" : 624, "target" : 34963}, {"buffer" : 0, "byteOffset" : 628, "byteLength" : 9984, "byteStride" : 32, "target" : 34962}], "materials" : [{"name" : "Material #25.004", "pbrMetallicRoughness" : {"baseColorFactor" : [0.5879999995231628, 0.5879999995231628, 0.5879999995231628, 1], "metallicFactor" : 1, "roughnessFactor" : 1}, "emissiveFactor" : [0.5879999995231628, 0.5879999995231628, 0.5879999995231628], "alphaMode" : "OPAQUE", "doubleSided" : false}], "meshes" : [{"primitives" : [{"attributes" : {"POSITION" : 1, "NORMAL" : 2, "TEXCOORD_0" : 3}, "indices" : 0, "material" : 0, "mode" : 4}], "name" : "Mesh.004"}], "nodes" : [{"mesh" : 0, "name" : "Hill_desert_002"}], "scene" : 0, "scenes" : [{"nodes" : [0]}]}