{"accessors" : [{"bufferView" : 0, "byteOffset" : 0, "componentType" : 5123, "count" : 6624, "type" : "SCALAR", "max" : [6623], "min" : [0]}, {"bufferView" : 1, "byteOffset" : 0, "componentType" : 5126, "count" : 6624, "type" : "VEC3", "max" : [2777.1357421875, 2568.9912109375, 1231.699951171875], "min" : [-2828.455322265625, -19.002721786499023, -1150.0003662109375], "name" : "POSITION"}, {"bufferView" : 1, "byteOffset" : 12, "componentType" : 5126, "count" : 6624, "type" : "VEC3", "max" : [1.0000044107437134, 1.0000044107437134, 1.0000044107437134], "min" : [-1.0000044107437134, -0.5604007840156555, -1.0000044107437134], "name" : "NORMAL"}, {"bufferView" : 1, "byteOffset" : 24, "componentType" : 5126, "count" : 6624, "type" : "VEC2", "max" : [0.03855294734239578, 0.9875348210334778], "min" : [0.01382786687463522, 0.9625598192214966], "name" : "TEXCOORD_0"}], "asset" : {"generator" : "Aspose.3D 24.1.0", "version" : "2.0"}, "buffers" : [{"uri" : "data:application/octet-stream;base64,", "byteLength" : 225224}], "bufferViews" : [{"buffer" : 0, "byteOffset" : 0, "byteLength" : 13248, "target" : 34963}, {"buffer" : 0, "byteOffset" : 13252, "byteLength" : 211968, "byteStride" : 32, "target" : 34962}], "materials" : [{"name" : "Material #25.002", "pbrMetallicRoughness" : {"baseColorFactor" : [0.5879999995231628, 0.5879999995231628, 0.5879999995231628, 1], "metallicFactor" : 1, "roughnessFactor" : 1}, "emissiveFactor" : [0.5879999995231628, 0.5879999995231628, 0.5879999995231628], "alphaMode" : "OPAQUE", "doubleSided" : false}], "meshes" : [{"primitives" : [{"attributes" : {"POSITION" : 1, "NORMAL" : 2, "TEXCOORD_0" : 3}, "indices" : 0, "material" : 0, "mode" : 4}], "name" : "Mesh.002"}], "nodes" : [{"mesh" : 0, "name" : "Mountain_desert_008"}], "scene" : 0, "scenes" : [{"nodes" : [0]}]}