{"accessors" : [{"bufferView" : 0, "byteOffset" : 0, "componentType" : 5123, "count" : 5040, "type" : "SCALAR", "max" : [5039], "min" : [0]}, {"bufferView" : 1, "byteOffset" : 0, "componentType" : 5126, "count" : 5040, "type" : "VEC3", "max" : [1277.44384765625, 1892.646728515625, 1150], "min" : [-1242.8837890625, -6.813494682312012, -1150], "name" : "POSITION"}, {"bufferView" : 1, "byteOffset" : 12, "componentType" : 5126, "count" : 5040, "type" : "VEC3", "max" : [1.0000044107437134, 1.0000044107437134, 1.0000042915344238], "min" : [-1.0000042915344238, -0.6422600746154785, -1.0000028610229492], "name" : "NORMAL"}, {"bufferView" : 1, "byteOffset" : 24, "componentType" : 5126, "count" : 5040, "type" : "VEC2", "max" : [0.040424592792987823, 0.9891989827156067], "min" : [0.013393348082900047, 0.9619751572608948], "name" : "TEXCOORD_0"}], "asset" : {"generator" : "Aspose.3D 24.1.0", "version" : "2.0"}, "buffers" : [{"uri" : "data:application/octet-stream;base64,", "byteLength" : 171368}], "bufferViews" : [{"buffer" : 0, "byteOffset" : 0, "byteLength" : 10080, "target" : 34963}, {"buffer" : 0, "byteOffset" : 10084, "byteLength" : 161280, "byteStride" : 32, "target" : 34962}], "materials" : [{"name" : "Material #25.001", "pbrMetallicRoughness" : {"baseColorFactor" : [0.5879999995231628, 0.5879999995231628, 0.5879999995231628, 1], "metallicFactor" : 1, "roughnessFactor" : 1}, "emissiveFactor" : [0.5879999995231628, 0.5879999995231628, 0.5879999995231628], "alphaMode" : "OPAQUE", "doubleSided" : false}], "meshes" : [{"primitives" : [{"attributes" : {"POSITION" : 1, "NORMAL" : 2, "TEXCOORD_0" : 3}, "indices" : 0, "material" : 0, "mode" : 4}], "name" : "Mesh.001"}], "nodes" : [{"mesh" : 0, "name" : "Mountain_desert_002"}], "scene" : 0, "scenes" : [{"nodes" : [0]}]}