{"accessors" : [{"bufferView" : 0, "byteOffset" : 0, "componentType" : 5123, "count" : 5376, "type" : "SCALAR", "max" : [5375], "min" : [0]}, {"bufferView" : 1, "byteOffset" : 0, "componentType" : 5126, "count" : 5376, "type" : "VEC3", "max" : [2564.500244140625, 2027.5831298828125, 1150.0003662109375], "min" : [-2678.139404296875, -5.026811413699761E-05, -1150.0003662109375], "name" : "POSITION"}, {"bufferView" : 1, "byteOffset" : 12, "componentType" : 5126, "count" : 5376, "type" : "VEC3", "max" : [1.0000044107437134, 1.0000044107437134, 1.0000044107437134], "min" : [-1.0000042915344238, -0.40736398100852966, -1.0000044107437134], "name" : "NORMAL"}, {"bufferView" : 1, "byteOffset" : 24, "componentType" : 5126, "count" : 5376, "type" : "VEC2", "max" : [0.034052371978759766, 0.9852287173271179], "min" : [0.014732539653778076, 0.9659073948860168], "name" : "TEXCOORD_0"}], "asset" : {"generator" : "Aspose.3D 24.1.0", "version" : "2.0"}, "buffers" : [{"uri" : "data:application/octet-stream;base64,", "byteLength" : 182792}], "bufferViews" : [{"buffer" : 0, "byteOffset" : 0, "byteLength" : 10752, "target" : 34963}, {"buffer" : 0, "byteOffset" : 10756, "byteLength" : 172032, "byteStride" : 32, "target" : 34962}], "materials" : [{"name" : "Material #25.001", "pbrMetallicRoughness" : {"baseColorFactor" : [0.5879999995231628, 0.5879999995231628, 0.5879999995231628, 1], "metallicFactor" : 1, "roughnessFactor" : 1}, "emissiveFactor" : [0.5879999995231628, 0.5879999995231628, 0.5879999995231628], "alphaMode" : "OPAQUE", "doubleSided" : false}], "meshes" : [{"primitives" : [{"attributes" : {"POSITION" : 1, "NORMAL" : 2, "TEXCOORD_0" : 3}, "indices" : 0, "material" : 0, "mode" : 4}], "name" : "Mesh.001"}], "nodes" : [{"mesh" : 0, "name" : "Mountain_desert_007"}], "scene" : 0, "scenes" : [{"nodes" : [0]}]}