{"accessors" : [{"bufferView" : 0, "byteOffset" : 0, "componentType" : 5123, "count" : 3696, "type" : "SCALAR", "max" : [3695], "min" : [0]}, {"bufferView" : 1, "byteOffset" : 0, "componentType" : 5126, "count" : 3696, "type" : "VEC3", "max" : [1150.0001220703125, 2094.205078125, 1150.0001220703125], "min" : [-1150.0001220703125, -5.026810322306119E-05, -1150.0001220703125], "name" : "POSITION"}, {"bufferView" : 1, "byteOffset" : 12, "componentType" : 5126, "count" : 3696, "type" : "VEC3", "max" : [1.0000044107437134, 1.0000044107437134, 1.0000044107437134], "min" : [-1.0000044107437134, -0.935637354850769, -1.0000044107437134], "name" : "NORMAL"}, {"bufferView" : 1, "byteOffset" : 24, "componentType" : 5126, "count" : 3696, "type" : "VEC2", "max" : [0.051387157291173935, 0.9988928437232971], "min" : [0.0064321113750338554, 0.9539975523948669], "name" : "TEXCOORD_0"}], "asset" : {"generator" : "Aspose.3D 24.1.0", "version" : "2.0"}, "buffers" : [{"uri" : "data:application/octet-stream;base64,", "byteLength" : 125672}], "bufferViews" : [{"buffer" : 0, "byteOffset" : 0, "byteLength" : 7392, "target" : 34963}, {"buffer" : 0, "byteOffset" : 7396, "byteLength" : 118272, "byteStride" : 32, "target" : 34962}], "materials" : [{"name" : "Material #25.003", "pbrMetallicRoughness" : {"baseColorFactor" : [0.5879999995231628, 0.5879999995231628, 0.5879999995231628, 1], "metallicFactor" : 1, "roughnessFactor" : 1}, "emissiveFactor" : [0.5879999995231628, 0.5879999995231628, 0.5879999995231628], "alphaMode" : "OPAQUE", "doubleSided" : false}], "meshes" : [{"primitives" : [{"attributes" : {"POSITION" : 1, "NORMAL" : 2, "TEXCOORD_0" : 3}, "indices" : 0, "material" : 0, "mode" : 4}], "name" : "Mesh.003"}], "nodes" : [{"mesh" : 0, "name" : "Mountain_desert_009"}], "scene" : 0, "scenes" : [{"nodes" : [0]}]}