{"accessors" : [{"bufferView" : 0, "byteOffset" : 0, "componentType" : 5123, "count" : 3744, "type" : "SCALAR", "max" : [3743], "min" : [0]}, {"bufferView" : 1, "byteOffset" : 0, "componentType" : 5126, "count" : 3744, "type" : "VEC3", "max" : [1343.619384765625, 1887.962890625, 1290.7738037109375], "min" : [-1352.5963134765625, -5.026810322306119E-05, -1282.7659912109375], "name" : "POSITION"}, {"bufferView" : 1, "byteOffset" : 12, "componentType" : 5126, "count" : 3744, "type" : "VEC3", "max" : [0.9969725012779236, 1.0000044107437134, 1.0000044107437134], "min" : [-1.0000044107437134, -0.7029673457145691, -1.0000044107437134], "name" : "NORMAL"}, {"bufferView" : 1, "byteOffset" : 24, "componentType" : 5126, "count" : 3744, "type" : "VEC2", "max" : [0.041335538029670715, 0.9957948327064514], "min" : [0.003010554239153862, 0.9572468996047974], "name" : "TEXCOORD_0"}], "asset" : {"generator" : "Aspose.3D 24.1.0", "version" : "2.0"}, "buffers" : [{"uri" : "data:application/octet-stream;base64,", "byteLength" : 127304}], "bufferViews" : [{"buffer" : 0, "byteOffset" : 0, "byteLength" : 7488, "target" : 34963}, {"buffer" : 0, "byteOffset" : 7492, "byteLength" : 119808, "byteStride" : 32, "target" : 34962}], "materials" : [{"name" : "Material #25.005", "pbrMetallicRoughness" : {"baseColorFactor" : [0.5879999995231628, 0.5879999995231628, 0.5879999995231628, 1], "metallicFactor" : 1, "roughnessFactor" : 1}, "emissiveFactor" : [0.5879999995231628, 0.5879999995231628, 0.5879999995231628], "alphaMode" : "OPAQUE", "doubleSided" : false}], "meshes" : [{"primitives" : [{"attributes" : {"POSITION" : 1, "NORMAL" : 2, "TEXCOORD_0" : 3}, "indices" : 0, "material" : 0, "mode" : 4}], "name" : "Mesh.005"}], "nodes" : [{"mesh" : 0, "name" : "Mountain_desert_006"}], "scene" : 0, "scenes" : [{"nodes" : [0]}]}