{"accessors" : [{"bufferView" : 0, "byteOffset" : 0, "componentType" : 5123, "count" : 3792, "type" : "SCALAR", "max" : [3791], "min" : [0]}, {"bufferView" : 1, "byteOffset" : 0, "componentType" : 5126, "count" : 3792, "type" : "VEC3", "max" : [1254.37060546875, 1592.7861328125, 1150.0001220703125], "min" : [-1235.896728515625, -5.026810322306119E-05, -1150.0001220703125], "name" : "POSITION"}, {"bufferView" : 1, "byteOffset" : 12, "componentType" : 5126, "count" : 3792, "type" : "VEC3", "max" : [1.0000044107437134, 1.0000044107437134, 1.0000044107437134], "min" : [-1.0000044107437134, -0.4378848075866699, -0.9987583160400391], "name" : "NORMAL"}, {"bufferView" : 1, "byteOffset" : 24, "componentType" : 5126, "count" : 3792, "type" : "VEC2", "max" : [0.03814539313316345, 0.9848297834396362], "min" : [0.01909136399626732, 0.9657238721847534], "name" : "TEXCOORD_0"}], "asset" : {"generator" : "Aspose.3D 24.1.0", "version" : "2.0"}, "buffers" : [{"uri" : "data:application/octet-stream;base64,", "byteLength" : 128936}], "bufferViews" : [{"buffer" : 0, "byteOffset" : 0, "byteLength" : 7584, "target" : 34963}, {"buffer" : 0, "byteOffset" : 7588, "byteLength" : 121344, "byteStride" : 32, "target" : 34962}], "materials" : [{"name" : "Material #25.002", "pbrMetallicRoughness" : {"baseColorFactor" : [0.5879999995231628, 0.5879999995231628, 0.5879999995231628, 1], "metallicFactor" : 1, "roughnessFactor" : 1}, "emissiveFactor" : [0.5879999995231628, 0.5879999995231628, 0.5879999995231628], "alphaMode" : "OPAQUE", "doubleSided" : false}], "meshes" : [{"primitives" : [{"attributes" : {"POSITION" : 1, "NORMAL" : 2, "TEXCOORD_0" : 3}, "indices" : 0, "material" : 0, "mode" : 4}], "name" : "Mesh.002"}], "nodes" : [{"mesh" : 0, "name" : "Mountain_desert_004"}], "scene" : 0, "scenes" : [{"nodes" : [0]}]}