{"accessors" : [{"bufferView" : 0, "byteOffset" : 0, "componentType" : 5123, "count" : 4272, "type" : "SCALAR", "max" : [4271], "min" : [0]}, {"bufferView" : 1, "byteOffset" : 0, "componentType" : 5126, "count" : 4272, "type" : "VEC3", "max" : [1150.0001220703125, 1877.909423828125, 1153.0584716796875], "min" : [-1246.416748046875, -5.026810322306119E-05, -1150.0001220703125], "name" : "POSITION"}, {"bufferView" : 1, "byteOffset" : 12, "componentType" : 5126, "count" : 4272, "type" : "VEC3", "max" : [1.0000044107437134, 1.0000044107437134, 1.0000044107437134], "min" : [-1.0000044107437134, -0.3786909878253937, -1.0000044107437134], "name" : "NORMAL"}, {"bufferView" : 1, "byteOffset" : 24, "componentType" : 5126, "count" : 4272, "type" : "VEC2", "max" : [0.03436226025223732, 0.9869326949119568], "min" : [0.010898028500378132, 0.9636193513870239], "name" : "TEXCOORD_0"}], "asset" : {"generator" : "Aspose.3D 24.1.0", "version" : "2.0"}, "buffers" : [{"uri" : "data:application/octet-stream;base64,", "byteLength" : 145256}], "bufferViews" : [{"buffer" : 0, "byteOffset" : 0, "byteLength" : 8544, "target" : 34963}, {"buffer" : 0, "byteOffset" : 8548, "byteLength" : 136704, "byteStride" : 32, "target" : 34962}], "materials" : [{"name" : "Material #25.001", "pbrMetallicRoughness" : {"baseColorFactor" : [0.5879999995231628, 0.5879999995231628, 0.5879999995231628, 1], "metallicFactor" : 1, "roughnessFactor" : 1}, "emissiveFactor" : [0.5879999995231628, 0.5879999995231628, 0.5879999995231628], "alphaMode" : "OPAQUE", "doubleSided" : false}], "meshes" : [{"primitives" : [{"attributes" : {"POSITION" : 1, "NORMAL" : 2, "TEXCOORD_0" : 3}, "indices" : 0, "material" : 0, "mode" : 4}], "name" : "Mesh.001"}], "nodes" : [{"mesh" : 0, "name" : "Mountain_desert_003"}], "scene" : 0, "scenes" : [{"nodes" : [0]}]}