{"accessors" : [{"bufferView" : 0, "byteOffset" : 0, "componentType" : 5123, "count" : 4608, "type" : "SCALAR", "max" : [4607], "min" : [0]}, {"bufferView" : 1, "byteOffset" : 0, "componentType" : 5126, "count" : 4608, "type" : "VEC3", "max" : [1221.334228515625, 2151.4677734375, 1281.7911376953125], "min" : [-1248.8056640625, -5.026810322306119E-05, -1150.000244140625], "name" : "POSITION"}, {"bufferView" : 1, "byteOffset" : 12, "componentType" : 5126, "count" : 4608, "type" : "VEC3", "max" : [1.0000044107437134, 1.0000044107437134, 1.0000044107437134], "min" : [-1.0000044107437134, -0.44412335753440857, -1.0000044107437134], "name" : "NORMAL"}, {"bufferView" : 1, "byteOffset" : 24, "componentType" : 5126, "count" : 4608, "type" : "VEC2", "max" : [0.043336715549230576, 0.9951485395431519], "min" : [0.003913516644388437, 0.955188512802124], "name" : "TEXCOORD_0"}], "asset" : {"generator" : "Aspose.3D 24.1.0", "version" : "2.0"}, "buffers" : [{"uri" : "data:application/octet-stream;base64,", "byteLength" : 156680}], "bufferViews" : [{"buffer" : 0, "byteOffset" : 0, "byteLength" : 9216, "target" : 34963}, {"buffer" : 0, "byteOffset" : 9220, "byteLength" : 147456, "byteStride" : 32, "target" : 34962}], "materials" : [{"name" : "Material #25.004", "pbrMetallicRoughness" : {"baseColorFactor" : [0.5879999995231628, 0.5879999995231628, 0.5879999995231628, 1], "metallicFactor" : 1, "roughnessFactor" : 1}, "emissiveFactor" : [0.5879999995231628, 0.5879999995231628, 0.5879999995231628], "alphaMode" : "OPAQUE", "doubleSided" : false}], "meshes" : [{"primitives" : [{"attributes" : {"POSITION" : 1, "NORMAL" : 2, "TEXCOORD_0" : 3}, "indices" : 0, "material" : 0, "mode" : 4}], "name" : "Mesh.004"}], "nodes" : [{"mesh" : 0, "name" : "Mountain_desert_005"}], "scene" : 0, "scenes" : [{"nodes" : [0]}]}