{"accessors" : [{"bufferView" : 0, "byteOffset" : 0, "componentType" : 5123, "count" : 3600, "type" : "SCALAR", "max" : [3599], "min" : [0]}, {"bufferView" : 1, "byteOffset" : 0, "componentType" : 5126, "count" : 3600, "type" : "VEC3", "max" : [1150.0001220703125, 2278.404296875, 1150.0001220703125], "min" : [-1216.1629638671875, -5.026810322306119E-05, -1150.0001220703125], "name" : "POSITION"}, {"bufferView" : 1, "byteOffset" : 12, "componentType" : 5126, "count" : 3600, "type" : "VEC3", "max" : [1.0000044107437134, 1.0000044107437134, 1.0000044107437134], "min" : [-1.0000044107437134, -0.957659125328064, -0.9962449669837952], "name" : "NORMAL"}, {"bufferView" : 1, "byteOffset" : 24, "componentType" : 5126, "count" : 3600, "type" : "VEC2", "max" : [0.03920558840036392, 0.9963217377662659], "min" : [0.004358032718300819, 0.9613566994667053], "name" : "TEXCOORD_0"}], "asset" : {"generator" : "Aspose.3D 24.1.0", "version" : "2.0"}, "buffers" : [{"uri" : "data:application/octet-stream;base64,", "byteLength" : 122408}], "bufferViews" : [{"buffer" : 0, "byteOffset" : 0, "byteLength" : 7200, "target" : 34963}, {"buffer" : 0, "byteOffset" : 7204, "byteLength" : 115200, "byteStride" : 32, "target" : 34962}], "materials" : [{"name" : "Material #25.004", "pbrMetallicRoughness" : {"baseColorFactor" : [0.5879999995231628, 0.5879999995231628, 0.5879999995231628, 1], "metallicFactor" : 1, "roughnessFactor" : 1}, "emissiveFactor" : [0.5879999995231628, 0.5879999995231628, 0.5879999995231628], "alphaMode" : "OPAQUE", "doubleSided" : false}], "meshes" : [{"primitives" : [{"attributes" : {"POSITION" : 1, "NORMAL" : 2, "TEXCOORD_0" : 3}, "indices" : 0, "material" : 0, "mode" : 4}], "name" : "Mesh.004"}], "nodes" : [{"mesh" : 0, "name" : "Mountain_desert_010"}], "scene" : 0, "scenes" : [{"nodes" : [0]}]}