{"accessors" : [{"bufferView" : 0, "byteOffset" : 0, "componentType" : 5123, "count" : 3120, "type" : "SCALAR", "max" : [3119], "min" : [0]}, {"bufferView" : 1, "byteOffset" : 0, "componentType" : 5126, "count" : 3120, "type" : "VEC3", "max" : [1150, 1663.4071044921875, 1150], "min" : [-1150, -5.0268095947103575E-05, -1150], "name" : "POSITION"}, {"bufferView" : 1, "byteOffset" : 12, "componentType" : 5126, "count" : 3120, "type" : "VEC3", "max" : [1.0000044107437134, 1.0000044107437134, 1.0000044107437134], "min" : [-1.0000044107437134, -0.34400174021720886, -1.0000044107437134], "name" : "NORMAL"}, {"bufferView" : 1, "byteOffset" : 24, "componentType" : 5126, "count" : 3120, "type" : "VEC2", "max" : [0.035098616033792496, 0.9884936809539795], "min" : [0.011513840407133102, 0.9649258852005005], "name" : "TEXCOORD_0"}], "asset" : {"generator" : "Aspose.3D 24.1.0", "version" : "2.0"}, "buffers" : [{"uri" : "data:application/octet-stream;base64,", "byteLength" : 106088}], "bufferViews" : [{"buffer" : 0, "byteOffset" : 0, "byteLength" : 6240, "target" : 34963}, {"buffer" : 0, "byteOffset" : 6244, "byteLength" : 99840, "byteStride" : 32, "target" : 34962}], "materials" : [{"name" : "Material #25", "pbrMetallicRoughness" : {"baseColorFactor" : [0.5879999995231628, 0.5879999995231628, 0.5879999995231628, 1], "metallicFactor" : 1, "roughnessFactor" : 1}, "emissiveFactor" : [0.5879999995231628, 0.5879999995231628, 0.5879999995231628], "alphaMode" : "OPAQUE", "doubleSided" : false}], "meshes" : [{"primitives" : [{"attributes" : {"POSITION" : 1, "NORMAL" : 2, "TEXCOORD_0" : 3}, "indices" : 0, "material" : 0, "mode" : 4}], "name" : "Mesh"}], "nodes" : [{"mesh" : 0, "name" : "Mountain_desert_001"}], "scene" : 0, "scenes" : [{"nodes" : [0]}]}