{"accessors" : [{"bufferView" : 0, "byteOffset" : 0, "componentType" : 5123, "count" : 4752, "type" : "SCALAR", "max" : [4751], "min" : [0]}, {"bufferView" : 1, "byteOffset" : 0, "componentType" : 5126, "count" : 4752, "type" : "VEC3", "max" : [2599.871337890625, 2125.25341796875, 1332.9783935546875], "min" : [-2787.74462890625, -6.499631854239851E-05, -1486.9423828125], "name" : "POSITION"}, {"bufferView" : 1, "byteOffset" : 12, "componentType" : 5126, "count" : 4752, "type" : "VEC3", "max" : [0.9980319142341614, 0.9999849200248718, 0.9996084570884705], "min" : [-0.9989886283874512, -0.9999954104423523, -0.9997974038124084], "name" : "NORMAL"}, {"bufferView" : 1, "byteOffset" : 24, "componentType" : 5126, "count" : 4752, "type" : "VEC2", "max" : [0.03983296826481819, 0.9907528162002563], "min" : [0.009863007813692093, 0.9609056115150452], "name" : "TEXCOORD_0"}], "asset" : {"generator" : "Aspose.3D 24.1.0", "version" : "2.0"}, "buffers" : [{"uri" : "data:application/octet-stream;base64,", "byteLength" : 161576}], "bufferViews" : [{"buffer" : 0, "byteOffset" : 0, "byteLength" : 9504, "target" : 34963}, {"buffer" : 0, "byteOffset" : 9508, "byteLength" : 152064, "byteStride" : 32, "target" : 34962}], "materials" : [{"name" : "Material #25", "pbrMetallicRoughness" : {"baseColorFactor" : [0.5879999995231628, 0.5879999995231628, 0.5879999995231628, 1], "metallicFactor" : 1, "roughnessFactor" : 1}, "emissiveFactor" : [0.5879999995231628, 0.5879999995231628, 0.5879999995231628], "alphaMode" : "OPAQUE", "doubleSided" : false}], "meshes" : [{"primitives" : [{"attributes" : {"POSITION" : 1, "NORMAL" : 2, "TEXCOORD_0" : 3}, "indices" : 0, "material" : 0, "mode" : 4}], "name" : "Mesh"}], "nodes" : [{"mesh" : 0, "name" : "Plateau_desert_004"}], "scene" : 0, "scenes" : [{"nodes" : [0]}]}