{"accessors" : [{"bufferView" : 0, "byteOffset" : 0, "componentType" : 5123, "count" : 4752, "type" : "SCALAR", "max" : [4751], "min" : [0]}, {"bufferView" : 1, "byteOffset" : 0, "componentType" : 5126, "count" : 4752, "type" : "VEC3", "max" : [2477.54296875, 2273.177001953125, 1150], "min" : [-2443.116455078125, -6.441483128583059E-05, -1473.6395263671875], "name" : "POSITION"}, {"bufferView" : 1, "byteOffset" : 12, "componentType" : 5126, "count" : 4752, "type" : "VEC3", "max" : [0.9976703524589539, 1.0000044107437134, 0.9997794032096863], "min" : [-0.9938409924507141, -0.4312830865383148, -0.9997637867927551], "name" : "NORMAL"}, {"bufferView" : 1, "byteOffset" : 24, "componentType" : 5126, "count" : 4752, "type" : "VEC2", "max" : [0.03942769765853882, 0.9927947521209717], "min" : [0.009577548131346703, 0.9633660316467285], "name" : "TEXCOORD_0"}], "asset" : {"generator" : "Aspose.3D 24.1.0", "version" : "2.0"}, "buffers" : [{"uri" : "data:application/octet-stream;base64,", "byteLength" : 161576}], "bufferViews" : [{"buffer" : 0, "byteOffset" : 0, "byteLength" : 9504, "target" : 34963}, {"buffer" : 0, "byteOffset" : 9508, "byteLength" : 152064, "byteStride" : 32, "target" : 34962}], "materials" : [{"name" : "Material #25.007", "pbrMetallicRoughness" : {"baseColorFactor" : [0.5879999995231628, 0.5879999995231628, 0.5879999995231628, 1], "metallicFactor" : 1, "roughnessFactor" : 1}, "emissiveFactor" : [0.5879999995231628, 0.5879999995231628, 0.5879999995231628], "alphaMode" : "OPAQUE", "doubleSided" : false}], "meshes" : [{"primitives" : [{"attributes" : {"POSITION" : 1, "NORMAL" : 2, "TEXCOORD_0" : 3}, "indices" : 0, "material" : 0, "mode" : 4}], "name" : "Mesh.007"}], "nodes" : [{"mesh" : 0, "name" : "Plateau_desert_002"}], "scene" : 0, "scenes" : [{"nodes" : [0]}]}