{"accessors" : [{"bufferView" : 0, "byteOffset" : 0, "componentType" : 5123, "count" : 3360, "type" : "SCALAR", "max" : [3359], "min" : [0]}, {"bufferView" : 1, "byteOffset" : 0, "componentType" : 5126, "count" : 3360, "type" : "VEC3", "max" : [2705.55029296875, 2859.544677734375, 1459.1358642578125], "min" : [-2430.45361328125, -6.409158959286287E-05, -1466.2447509765625], "name" : "POSITION"}, {"bufferView" : 1, "byteOffset" : 12, "componentType" : 5126, "count" : 3360, "type" : "VEC3", "max" : [0.9982933402061462, 1.0000044107437134, 0.99550861120224], "min" : [-0.9973909854888916, -0.39930787682533264, -1.0000022649765015], "name" : "NORMAL"}, {"bufferView" : 1, "byteOffset" : 24, "componentType" : 5126, "count" : 3360, "type" : "VEC2", "max" : [0.03964613750576973, 0.9930487275123596], "min" : [0.009711075574159622, 0.9630787372589111], "name" : "TEXCOORD_0"}], "asset" : {"generator" : "Aspose.3D 24.1.0", "version" : "2.0"}, "buffers" : [{"uri" : "data:application/octet-stream;base64,", "byteLength" : 114248}], "bufferViews" : [{"buffer" : 0, "byteOffset" : 0, "byteLength" : 6720, "target" : 34963}, {"buffer" : 0, "byteOffset" : 6724, "byteLength" : 107520, "byteStride" : 32, "target" : 34962}], "materials" : [{"name" : "Material #25", "pbrMetallicRoughness" : {"baseColorFactor" : [0.5879999995231628, 0.5879999995231628, 0.5879999995231628, 1], "metallicFactor" : 1, "roughnessFactor" : 1}, "emissiveFactor" : [0.5879999995231628, 0.5879999995231628, 0.5879999995231628], "alphaMode" : "OPAQUE", "doubleSided" : false}], "meshes" : [{"primitives" : [{"attributes" : {"POSITION" : 1, "NORMAL" : 2, "TEXCOORD_0" : 3}, "indices" : 0, "material" : 0, "mode" : 4}], "name" : "Mesh"}], "nodes" : [{"mesh" : 0, "name" : "Plateau_desert_001"}], "scene" : 0, "scenes" : [{"nodes" : [0]}]}