{"accessors" : [{"bufferView" : 0, "byteOffset" : 0, "componentType" : 5123, "count" : 4944, "type" : "SCALAR", "max" : [4943], "min" : [0]}, {"bufferView" : 1, "byteOffset" : 0, "componentType" : 5126, "count" : 4944, "type" : "VEC3", "max" : [2786.86376953125, 1990.6995849609375, 1509.0450439453125], "min" : [-2697.2197265625, -6.829763151472434E-05, -1562.4677734375], "name" : "POSITION"}, {"bufferView" : 1, "byteOffset" : 12, "componentType" : 5126, "count" : 4944, "type" : "VEC3", "max" : [0.99875408411026, 1.0000044107437134, 0.9966810345649719], "min" : [-0.9991297125816345, -0.48764553666114807, -0.998272180557251], "name" : "NORMAL"}, {"bufferView" : 1, "byteOffset" : 24, "componentType" : 5126, "count" : 4944, "type" : "VEC2", "max" : [0.04091115668416023, 0.9903862476348877], "min" : [0.013611100614070892, 0.9631925821304321], "name" : "TEXCOORD_0"}], "asset" : {"generator" : "Aspose.3D 24.1.0", "version" : "2.0"}, "buffers" : [{"uri" : "data:application/octet-stream;base64,", "byteLength" : 168104}], "bufferViews" : [{"buffer" : 0, "byteOffset" : 0, "byteLength" : 9888, "target" : 34963}, {"buffer" : 0, "byteOffset" : 9892, "byteLength" : 158208, "byteStride" : 32, "target" : 34962}], "materials" : [{"name" : "Material #25.008", "pbrMetallicRoughness" : {"baseColorFactor" : [0.5879999995231628, 0.5879999995231628, 0.5879999995231628, 1], "metallicFactor" : 1, "roughnessFactor" : 1}, "emissiveFactor" : [0.5879999995231628, 0.5879999995231628, 0.5879999995231628], "alphaMode" : "OPAQUE", "doubleSided" : false}], "meshes" : [{"primitives" : [{"attributes" : {"POSITION" : 1, "NORMAL" : 2, "TEXCOORD_0" : 3}, "indices" : 0, "material" : 0, "mode" : 4}], "name" : "Mesh.008"}], "nodes" : [{"mesh" : 0, "name" : "Plateau_desert_003"}], "scene" : 0, "scenes" : [{"nodes" : [0]}]}