{"accessors" : [{"bufferView" : 0, "byteOffset" : 0, "componentType" : 5123, "count" : 3036, "type" : "SCALAR", "max" : [3035], "min" : [0]}, {"bufferView" : 1, "byteOffset" : 0, "componentType" : 5126, "count" : 3036, "type" : "VEC3", "max" : [2512.283203125, 1910.5008544921875, 1370.802734375], "min" : [-2776.0810546875, -6.473250687122345E-05, -1480.9071044921875], "name" : "POSITION"}, {"bufferView" : 1, "byteOffset" : 12, "componentType" : 5126, "count" : 3036, "type" : "VEC3", "max" : [0.9863391518592834, 1.0000044107437134, 0.9977529644966125], "min" : [-0.9813001155853271, -0.3677738606929779, -0.9998446702957153], "name" : "NORMAL"}, {"bufferView" : 1, "byteOffset" : 24, "componentType" : 5126, "count" : 3036, "type" : "VEC2", "max" : [0.038700301200151443, 0.9919565916061401], "min" : [0.01075037196278572, 0.9619866609573364], "name" : "TEXCOORD_0"}], "asset" : {"generator" : "Aspose.3D 24.1.0", "version" : "2.0"}, "buffers" : [{"uri" : "data:application/octet-stream;base64,", "byteLength" : 103232}], "bufferViews" : [{"buffer" : 0, "byteOffset" : 0, "byteLength" : 6072, "target" : 34963}, {"buffer" : 0, "byteOffset" : 6076, "byteLength" : 97152, "byteStride" : 32, "target" : 34962}], "materials" : [{"name" : "Material #25.001", "pbrMetallicRoughness" : {"baseColorFactor" : [0.5879999995231628, 0.5879999995231628, 0.5879999995231628, 1], "metallicFactor" : 1, "roughnessFactor" : 1}, "emissiveFactor" : [0.5879999995231628, 0.5879999995231628, 0.5879999995231628], "alphaMode" : "OPAQUE", "doubleSided" : false}], "meshes" : [{"primitives" : [{"attributes" : {"POSITION" : 1, "NORMAL" : 2, "TEXCOORD_0" : 3}, "indices" : 0, "material" : 0, "mode" : 4}], "name" : "Mesh.001"}], "nodes" : [{"mesh" : 0, "name" : "Plateau_desert_005"}], "scene" : 0, "scenes" : [{"nodes" : [0]}]}