{"accessors":[{"bufferView":0,"byteOffset":0,"componentType":5126,"count":400,"max":[0.606278,0.972321,0.606278],"min":[-0.648518,0.495367,-0.65122],"normalized":false,"type":"VEC3"},{"bufferView":1,"byteOffset":0,"componentType":5126,"count":400,"max":[0.868534,0.999088,0.823683],"min":[-0.878377,0.06353,-0.899651],"normalized":false,"type":"VEC3"},{"bufferView":2,"byteOffset":0,"componentType":5126,"count":400,"max":[0,1],"min":[0,1],"normalized":false,"type":"VEC2"},{"bufferView":3,"byteOffset":0,"componentType":5125,"count":2166,"max":[399],"min":[0],"normalized":false,"type":"SCALAR"},{"bufferView":4,"byteOffset":0,"componentType":5126,"count":400,"max":[0.666135,-0.495367,0.677095],"min":[-0.624353,-0.953127,-0.650673],"normalized":false,"type":"VEC3"},{"bufferView":5,"byteOffset":0,"componentType":5126,"count":400,"max":[0.979811,0.221687,0.928271],"min":[-0.985572,-0.999749,-0.947496],"normalized":false,"type":"VEC3"},{"bufferView":6,"byteOffset":0,"componentType":5126,"count":400,"max":[0,0],"min":[0,0],"normalized":false,"type":"VEC2"},{"bufferView":7,"byteOffset":0,"componentType":5125,"count":2166,"max":[399],"min":[0],"normalized":false,"type":"SCALAR"},{"bufferView":8,"byteOffset":0,"componentType":5126,"count":400,"max":[-0.495367,0.648518,0.652381],"min":[-0.945248,-0.624353,-0.609163],"normalized":false,"type":"VEC3"},{"bufferView":9,"byteOffset":0,"componentType":5126,"count":400,"max":[0.252857,0.994225,0.908511],"min":[-0.998742,-0.808385,-0.997426],"normalized":false,"type":"VEC3"},{"bufferView":10,"byteOffset":0,"componentType":5126,"count":400,"max":[0,1],"min":[0,0],"normalized":false,"type":"VEC2"},{"bufferView":11,"byteOffset":0,"componentType":5125,"count":2166,"max":[399],"min":[0],"normalized":false,"type":"SCALAR"},{"bufferView":12,"byteOffset":0,"componentType":5126,"count":400,"max":[0.933366,0.606278,0.647923],"min":[0.495367,-0.666135,-0.606278],"normalized":false,"type":"VEC3"},{"bufferView":13,"byteOffset":0,"componentType":5126,"count":400,"max":[0.999182,0.999183,0.996865],"min":[-0.015885,-0.912302,-0.939414],"normalized":false,"type":"VEC3"},{"bufferView":14,"byteOffset":0,"componentType":5126,"count":400,"max":[0,1],"min":[0,0],"normalized":false,"type":"VEC2"},{"bufferView":15,"byteOffset":0,"componentType":5125,"count":2166,"max":[399],"min":[0],"normalized":false,"type":"SCALAR"},{"bufferView":16,"byteOffset":0,"componentType":5126,"count":400,"max":[0.606278,0.65122,-0.495367],"min":[-0.60663,-0.650673,-0.909022],"normalized":false,"type":"VEC3"},{"bufferView":17,"byteOffset":0,"componentType":5126,"count":400,"max":[0.925704,0.871075,0.094773],"min":[-0.854124,-0.976868,-0.998932],"normalized":false,"type":"VEC3"},{"bufferView":18,"byteOffset":0,"componentType":5126,"count":400,"max":[0,1],"min":[0,0],"normalized":false,"type":"VEC2"},{"bufferView":19,"byteOffset":0,"componentType":5125,"count":2166,"max":[399],"min":[0],"normalized":false,"type":"SCALAR"},{"bufferView":20,"byteOffset":0,"componentType":5126,"count":400,"max":[0.643196,0.606278,0.926075],"min":[-0.652381,-0.677095,0.495367],"normalized":false,"type":"VEC3"},{"bufferView":21,"byteOffset":0,"componentType":5126,"count":400,"max":[0.785061,0.824228,0.999214],"min":[-0.968926,-0.925381,0.031752],"normalized":false,"type":"VEC3"},{"bufferView":22,"byteOffset":0,"componentType":5126,"count":400,"max":[0,1],"min":[0,0],"normalized":false,"type":"VEC2"},{"bufferView":23,"byteOffset":0,"componentType":5125,"count":2166,"max":[399],"min":[0],"normalized":false,"type":"SCALAR"}],"asset":{"generator":"Godot Engine v4.2.1.stable.mono.official@b09f793f564a6c95dc76acc654b390e68441bd01","version":"2.0"},"bufferViews":[{"buffer":0,"byteLength":4800,"byteOffset":0},{"buffer":0,"byteLength":4800,"byteOffset":4800},{"buffer":0,"byteLength":3200,"byteOffset":9600},{"buffer":0,"byteLength":8664,"byteOffset":12800},{"buffer":0,"byteLength":4800,"byteOffset":21464},{"buffer":0,"byteLength":4800,"byteOffset":26264},{"buffer":0,"byteLength":3200,"byteOffset":31064},{"buffer":0,"byteLength":8664,"byteOffset":34264},{"buffer":0,"byteLength":4800,"byteOffset":42928},{"buffer":0,"byteLength":4800,"byteOffset":47728},{"buffer":0,"byteLength":3200,"byteOffset":52528},{"buffer":0,"byteLength":8664,"byteOffset":55728},{"buffer":0,"byteLength":4800,"byteOffset":64392},{"buffer":0,"byteLength":4800,"byteOffset":69192},{"buffer":0,"byteLength":3200,"byteOffset":73992},{"buffer":0,"byteLength":8664,"byteOffset":77192},{"buffer":0,"byteLength":4800,"byteOffset":85856},{"buffer":0,"byteLength":4800,"byteOffset":90656},{"buffer":0,"byteLength":3200,"byteOffset":95456},{"buffer":0,"byteLength":8664,"byteOffset":98656},{"buffer":0,"byteLength":4800,"byteOffset":107320},{"buffer":0,"byteLength":4800,"byteOffset":112120},{"buffer":0,"byteLength":3200,"byteOffset":116920},{"buffer":0,"byteLength":8664,"byteOffset":120120}],"buffers":[{"byteLength":128784,"uri":"Planet0.bin"}],"extensionsUsed":["GODOT_single_root"],"materials":[{}],"meshes":[{"extras":{"targetNames":[]},"primitives":[{"attributes":{"NORMAL":1,"POSITION":0,"TEXCOORD_0":2},"indices":3,"material":0,"mode":4}]},{"extras":{"targetNames":[]},"primitives":[{"attributes":{"NORMAL":5,"POSITION":4,"TEXCOORD_0":6},"indices":7,"material":0,"mode":4}]},{"extras":{"targetNames":[]},"primitives":[{"attributes":{"NORMAL":9,"POSITION":8,"TEXCOORD_0":10},"indices":11,"material":0,"mode":4}]},{"extras":{"targetNames":[]},"primitives":[{"attributes":{"NORMAL":13,"POSITION":12,"TEXCOORD_0":14},"indices":15,"material":0,"mode":4}]},{"extras":{"targetNames":[]},"primitives":[{"attributes":{"NORMAL":17,"POSITION":16,"TEXCOORD_0":18},"indices":19,"material":0,"mode":4}]},{"extras":{"targetNames":[]},"primitives":[{"attributes":{"NORMAL":21,"POSITION":20,"TEXCOORD_0":22},"indices":23,"material":0,"mode":4}]}],"nodes":[{"children":[1,2,3,4,5,6],"extensions":{},"name":"Planet"},{"extensions":{},"mesh":0,"name":"Up"},{"extensions":{},"mesh":1,"name":"Down"},{"extensions":{},"mesh":2,"name":"Left"},{"extensions":{},"mesh":3,"name":"Right"},{"extensions":{},"mesh":4,"name":"Front"},{"extensions":{},"mesh":5,"name":"Back"}],"scene":0,"scenes":[{"nodes":[0]}]}